<?xml version="1.0" encoding="UTF-8" standalone="no"?>
<svg
   width="151mm"
   height="42mm"
   viewBox="0 0 151 42"
   version="1.1"
   id="svg12996"
   inkscape:version="1.2.1 (9c6d41e410, 2022-07-14)"
   sodipodi:docname="artanis-complete-pantone-2023_7.svg"
   xmlns:inkscape="http://www.inkscape.org/namespaces/inkscape"
   xmlns:sodipodi="http://sodipodi.sourceforge.net/DTD/sodipodi-0.dtd"
   xmlns="http://www.w3.org/2000/svg"
   xmlns:svg="http://www.w3.org/2000/svg"
   xmlns:rdf="http://www.w3.org/1999/02/22-rdf-syntax-ns#"
   xmlns:cc="http://creativecommons.org/ns#"
   xmlns:dc="http://purl.org/dc/elements/1.1/">
  <metadata
     id="metadata15">
    <rdf:RDF>
      <cc:Work
         rdf:about="">
        <dc:format>image/svg+xml</dc:format>
        <dc:type
           rdf:resource="http://purl.org/dc/dcmitype/StillImage" />
      </cc:Work>
    </rdf:RDF>
  </metadata>
  <sodipodi:namedview
     id="namedview12998"
     pagecolor="#ffffff"
     bordercolor="#999999"
     borderopacity="1"
     inkscape:showpageshadow="0"
     inkscape:pageopacity="0"
     inkscape:pagecheckerboard="0"
     inkscape:deskcolor="#d1d1d1"
     inkscape:document-units="mm"
     showgrid="false"
     inkscape:zoom="11.313708"
     inkscape:cx="52.016543"
     inkscape:cy="111.59029"
     inkscape:window-width="1536"
     inkscape:window-height="772"
     inkscape:window-x="0"
     inkscape:window-y="0"
     inkscape:window-maximized="1"
     inkscape:current-layer="layer1"
     inkscape:document-rotation="0">
    <inkscape:grid
       type="xygrid"
       id="grid55" />
  </sodipodi:namedview>
  <defs
     id="defs12993">
    <inkscape:path-effect
       effect="powerstroke"
       id="path-effect18"
       is_visible="true"
       lpeversion="1"
       offset_points="0.50216976,1.8488709"
       sort_points="true"
       interpolator_type="CentripetalCatmullRom"
       interpolator_beta="0.75"
       start_linecap_type="peak"
       linejoin_type="spiro"
       miter_limit="4"
       scale_width="1"
       end_linecap_type="peak" />
  </defs>
  <g
     inkscape:label="Layer 1"
     inkscape:groupmode="layer"
     id="layer1">
    <path
       id="text586"
       style="font-style:normal;font-variant:normal;font-weight:normal;font-stretch:normal;font-size:43.7444px;font-family:Hack;-inkscape-font-specification:Hack;fill:#bfcad6;stroke-width:0.222356;fill-opacity:1"
       d="m 118.49052,20.20885 v 18.955451 h 3.72071 V 20.20885 Z" />
    <path
       id="path640"
       style="font-style:normal;font-variant:normal;font-weight:normal;font-stretch:normal;font-size:43.7444px;font-family:Hack;-inkscape-font-specification:Hack;fill:#bfcad6;stroke-width:0.222804;fill-opacity:1"
       d="m 138.16064,19.96644 c -2.71198,0 -4.88652,0.527685 -6.52363,1.583056 -1.62057,1.043642 -2.43086,2.286639 -2.43086,3.728977 0,1.055369 0.41341,1.981759 1.24023,2.779145 0.82683,0.797392 1.87689,1.407165 3.1502,1.829312 1.00872,0.328337 2.36471,0.586323 4.06797,0.773942 1.70325,0.18762 2.836,0.357652 3.39824,0.510092 0.82682,0.222805 1.52135,0.580459 2.08359,1.072964 0.56224,0.492506 0.84336,1.072964 0.84336,1.74136 0,0.375245 -0.10748,0.744627 -0.32246,1.108144 -0.21497,0.351787 -0.53743,0.691854 -0.96738,1.020191 -0.42995,0.328337 -1.0418,0.59218 -1.83555,0.791528 -0.77721,0.199348 -1.67845,0.299022 -2.70371,0.299022 -2.28203,0 -4.96094,-0.492506 -8.03672,-1.477517 l -1.33945,2.198687 c 3.47265,1.090549 6.59805,1.635828 9.37617,1.635828 2.96002,0 5.29167,-0.557001 6.99492,-1.671002 1.70326,-1.114007 2.55489,-2.415635 2.55489,-3.904881 0,-1.184359 -0.4961,-2.210415 -1.48829,-3.078166 -0.99218,-0.867746 -2.21588,-1.495104 -3.67109,-1.882079 -1.04179,-0.269707 -2.33991,-0.480777 -3.89434,-0.633224 -1.53788,-0.164169 -2.64583,-0.357652 -3.32382,-0.58045 -0.69453,-0.222799 -1.27331,-0.551137 -1.73633,-0.985013 -0.44649,-0.445604 -0.66973,-0.961561 -0.66973,-1.547883 0,-0.30488 0.0827,-0.615631 0.24805,-0.93224 0.1819,-0.316615 0.45475,-0.633223 0.81855,-0.949839 0.36381,-0.316608 0.90951,-0.574586 1.63711,-0.773934 0.72761,-0.199348 1.57097,-0.299023 2.53008,-0.299023 1.91823,0 4.33256,0.43974 7.24297,1.319213 l 1.26504,-2.233873 c -3.20807,-0.96156 -6.04408,-1.442337 -8.50801,-1.442337 z" />
    <path
       id="path638"
       style="font-style:normal;font-variant:normal;font-weight:normal;font-stretch:normal;font-size:43.7444px;font-family:Hack;-inkscape-font-specification:Hack;fill:#bfcad6;stroke-width:0.219154;fill-opacity:1"
       d="m 73.842078,20.60318 c -2.28203,0 -4.927865,0.470828 -7.937497,1.412491 l 1.413867,2.110224 c 2.513538,-0.828205 4.68809,-1.242308 6.52363,-1.242308 1.25677,0 2.37298,0.192869 3.34863,0.578609 0.97566,0.385741 1.67019,0.958678 2.0836,1.718811 0.1819,0.329015 0.28939,0.692061 0.32246,1.089149 0.0496,0.385741 0.0744,1.032423 0.0744,1.940042 h -3.74551 c -1.00873,0 -1.76114,0.0055 -2.25723,0.01702 -0.49609,0 -1.07487,0.02834 -1.73633,0.08509 -0.66146,0.05674 -1.26504,0.141813 -1.810741,0.25527 -1.852081,0.38574 -3.290756,1.055111 -4.316015,2.008115 -1.008723,0.941662 -1.513086,2.025138 -1.513086,3.250431 0,1.633716 0.793751,3.000829 2.38125,4.101325 1.604035,1.089141 3.662828,1.633723 6.176362,1.633723 2.66237,0 4.93614,-0.743118 6.8213,-2.229355 v 1.957065 h 3.7207 v -11.07869 c 0,-1.667752 -0.13229,-2.802285 -0.39687,-3.403585 -0.59532,-1.350091 -1.7198,-2.388189 -3.37344,-3.114285 -1.65365,-0.726096 -3.58015,-1.089149 -5.7795,-1.089149 z m 27.781262,0 c -2.596222,0 -4.869992,0.737444 -6.821292,2.212334 v -1.94005 h -3.72071 v 18.413424 h 3.72071 V 28.822845 c 0,-1.077801 0.0331,-1.854955 0.0992,-2.331457 0.0661,-0.48785 0.24804,-0.953003 0.5457,-1.395468 0.46302,-0.703409 1.17409,-1.247983 2.1332,-1.633724 0.97565,-0.38574 2.07533,-0.578609 3.299032,-0.578609 1.22369,0 2.3151,0.192869 3.27421,0.578609 0.97565,0.385741 1.69499,0.930315 2.15801,1.633724 0.29766,0.442465 0.47956,0.907618 0.54571,1.395468 0.0661,0.476502 0.0992,1.253656 0.0992,2.331457 v 10.466043 h 3.72071 V 28.652671 c 0,-0.68072 -0.008,-1.196931 -0.0248,-1.548635 -0.0165,-0.363053 -0.0827,-0.805518 -0.19843,-1.327404 -0.11576,-0.521878 -0.29766,-0.98704 -0.54571,-1.395468 -0.69453,-1.191258 -1.79421,-2.115899 -3.29902,-2.773923 -1.48828,-0.669372 -3.1502,-1.004061 -4.98574,-1.004061 z m -25.548842,9.717249 h 3.59669 c 0,0.862237 -0.008,1.486231 -0.0248,1.871971 0,0.374393 -0.0413,0.777155 -0.12402,1.208273 -0.0662,0.431124 -0.17363,0.811191 -0.32246,1.140206 -0.42995,0.918967 -1.17409,1.605361 -2.23243,2.059167 -1.05833,0.453813 -2.26549,0.680719 -3.62148,0.680719 -1.68672,0 -3.001369,-0.334682 -3.943947,-1.004054 -0.92604,-0.669373 -1.389062,-1.486237 -1.389062,-2.450588 0,-0.782822 0.289389,-1.463542 0.868164,-2.042151 0.578775,-0.589959 1.4056,-0.998388 2.480465,-1.225295 0.76068,-0.158834 2.33165,-0.238248 4.71289,-0.238248 z" />
    <path
       id="path636"
       style="font-style:normal;font-variant:normal;font-weight:normal;font-stretch:normal;font-size:43.7444px;font-family:Hack;-inkscape-font-specification:Hack;fill:#bfcad6;stroke-width:0.214315;fill-opacity:1"
       d="m 41.868837,21.294682 c -2.41432,0 -4.522723,0.705237 -6.325195,2.115711 v -1.85532 h -3.720703 v 17.609228 h 3.720703 V 28.699667 c 0,-1.464721 0.181902,-2.484604 0.545703,-3.059643 0.413412,-0.661835 1.083139,-1.188052 2.00918,-1.578642 0.926041,-0.390597 2.017449,-0.58589 3.274219,-0.58589 0.446485,0 1.190627,0.04882 2.232421,0.146473 l 0.545704,-2.148264 c -0.843358,-0.119346 -1.604037,-0.179019 -2.282032,-0.179019 z" />
    <path
       id="path634"
       style="font-style:normal;font-variant:normal;font-weight:normal;font-stretch:normal;font-size:43.7444px;font-family:Hack;-inkscape-font-specification:Hack;fill:#bfcad6;stroke-width:0.214918;fill-opacity:1"
       d="m 50.352041,17.761006 v 3.829756 h -3.720703 v 2.029444 h 3.720703 v 10.720057 c 0,1.34205 0.09095,2.220387 0.272852,2.635003 0.363802,0.829235 1.025261,1.467526 1.984375,1.91488 0.97565,0.447348 2.166276,0.671025 3.571875,0.671025 1.422134,0 2.926955,-0.229134 4.514453,-0.687395 l -1.438673,-2.029443 c -1.025259,0.349154 -1.967838,0.523728 -2.827734,0.523728 -1.041796,0 -1.752865,-0.300051 -2.133203,-0.900159 -0.148827,-0.240041 -0.223242,-0.949255 -0.223242,-2.127639 V 23.620206 h 4.960938 v -2.029444 h -4.960938 v -3.829756 z" />
    <path
       id="path630"
       style="font-style:normal;font-variant:normal;font-weight:normal;font-stretch:normal;font-size:43.7444px;font-family:Hack;-inkscape-font-specification:Hack;fill:#bfcad6;stroke-width:0.264583;fill-opacity:1"
       d="m 120.35088,13.094572 c -0.678,0 -1.24024,0.223241 -1.68672,0.669731 -0.42995,0.42994 -0.64493,0.98392 -0.64493,1.661911 0,0.67799 0.21498,1.240231 0.64493,1.686721 0.44648,0.42995 1.00872,0.64492 1.68672,0.64492 0.67799,0 1.23196,-0.21497 1.66191,-0.64492 0.44648,-0.44649 0.66973,-1.008731 0.66973,-1.686721 0,-0.677991 -0.22325,-1.231971 -0.66973,-1.661911 -0.42995,-0.44649 -0.98392,-0.669731 -1.66191,-0.669731 z" />
    <path
       id="path632-3"
       style="font-style:normal;font-variant:normal;font-weight:normal;font-stretch:normal;font-size:43.7444px;font-family:Hack;-inkscape-font-specification:Hack;fill:#bb2649;fill-opacity:1;stroke-width:0.2815"
       d="M 15.795418 11.179163 L 13.456026 16.220199 L 2.9682943 39.1604 L 7.1334147 39.1604 L 8.5090413 36.209159 L 15.218193 36.241715 L 15.233695 32.452799 L 10.26759 32.437297 L 15.378389 21.474658 L 22.085474 39.1604 L 26.250594 39.1604 L 15.795418 11.179163 z " />
    <path
       id="text37413"
       style="font-size:43.7444px;font-family:Hack;-inkscape-font-specification:Hack;fill:#b7a990;stroke-width:0.264583"
       d="M 13.456026 16.220199 L 11.877311 11.994617 C 11.873048 11.983192 11.868189 11.972891 11.863875 11.961544 C 11.867638 11.971463 11.871521 11.98102 11.875244 11.990999 L 13.456026 16.220199 z " />
    <path
       id="path39774"
       style="font-size:43.7444px;font-family:Hack;-inkscape-font-specification:Hack;fill:#b7a990;stroke-width:0.264583"
       d="M 15.038875 9.2113241 C 14.970739 9.0689531 14.896467 8.9313821 14.816667 8.7989461 C 14.735686 8.6645509 14.648694 8.5355355 14.555701 8.4113729 C 14.462707 8.2872103 14.364085 8.1682174 14.259078 8.0542887 C 14.154071 7.9403601 14.042788 7.8313869 13.925765 7.7276937 C 13.808742 7.6240004 13.685835 7.525561 13.556795 7.4321045 C 13.427756 7.338648 13.292709 7.2502227 13.151652 7.1670044 C 13.010595 7.0837861 12.863412 7.0058888 12.710335 6.9329102 C 12.557259 6.8599315 12.398963 6.7909506 12.235429 6.7262044 C 12.071895 6.6614582 11.902991 6.6008172 11.729 6.5443034 C 11.555008 6.4877896 11.376014 6.4354884 11.191565 6.387207 C 11.007116 6.3389257 10.817514 6.2944476 10.622607 6.2543986 C 10.427701 6.2143496 10.227491 6.1787283 10.022127 6.1469116 C 9.8167636 6.1150949 9.6059452 6.087297 9.3901245 6.0637126 C 9.1743038 6.0401281 8.9533934 6.0206704 8.7271159 6.0053182 C 8.5008383 5.989966 8.2693189 5.9788485 8.0325846 5.9717285 L 6.5370687 5.9288371 L 6.5370687 9.2996908 L 7.5819661 9.2996908 C 8.6641833 9.2996908 9.5612898 9.5132875 10.273275 9.9404785 C 10.719356 10.199205 11.095549 10.564368 11.401888 11.035502 C 11.462257 11.128347 11.520062 11.225346 11.575004 11.32644 C 11.576933 11.329991 11.578766 11.333732 11.580688 11.337292 C 11.634091 11.436177 11.684894 11.538552 11.733134 11.645284 C 11.736056 11.65175 11.739015 11.658426 11.741919 11.664921 C 11.784695 11.760607 11.825212 11.859606 11.863875 11.961544 C 11.868189 11.972891 11.873048 11.983192 11.877311 11.994617 L 13.456026 16.220199 L 15.795418 11.179163 L 15.229045 9.6629761 C 15.173606 9.5126288 15.112367 9.3670033 15.045593 9.2263102 C 15.043646 9.2221991 15.041866 9.2180107 15.039909 9.2139079 C 15.039509 9.2130698 15.039275 9.2121618 15.038875 9.2113241 z " />
  </g>
</svg>
