<?xml version="1.0" encoding="UTF-8" standalone="no"?>
<svg
   width="62mm"
   height="55mm"
   viewBox="0 0 62 55"
   version="1.1"
   id="svg15417"
   sodipodi:docname="artanis-brief-pantone-2023_7.svg"
   inkscape:version="1.2.1 (9c6d41e410, 2022-07-14)"
   xmlns:inkscape="http://www.inkscape.org/namespaces/inkscape"
   xmlns:sodipodi="http://sodipodi.sourceforge.net/DTD/sodipodi-0.dtd"
   xmlns="http://www.w3.org/2000/svg"
   xmlns:svg="http://www.w3.org/2000/svg"
   xmlns:rdf="http://www.w3.org/1999/02/22-rdf-syntax-ns#"
   xmlns:cc="http://creativecommons.org/ns#"
   xmlns:dc="http://purl.org/dc/elements/1.1/">
  <metadata
     id="metadata9">
    <rdf:RDF>
      <cc:Work
         rdf:about="">
        <dc:format>image/svg+xml</dc:format>
        <dc:type
           rdf:resource="http://purl.org/dc/dcmitype/StillImage" />
      </cc:Work>
    </rdf:RDF>
  </metadata>
  <sodipodi:namedview
     id="namedview15419"
     pagecolor="#ffffff"
     bordercolor="#999999"
     borderopacity="1"
     inkscape:showpageshadow="0"
     inkscape:pageopacity="0"
     inkscape:pagecheckerboard="0"
     inkscape:deskcolor="#d1d1d1"
     inkscape:document-units="mm"
     showgrid="false"
     inkscape:zoom="5.6568543"
     inkscape:cx="114.81646"
     inkscape:cy="69.915183"
     inkscape:window-width="1536"
     inkscape:window-height="772"
     inkscape:window-x="0"
     inkscape:window-y="0"
     inkscape:window-maximized="1"
     inkscape:current-layer="layer1"
     inkscape:document-rotation="0" />
  <defs
     id="defs15414" />
  <g
     inkscape:label="Layer 1"
     inkscape:groupmode="layer"
     id="layer1">
    <path
       id="path632-3"
       style="font-style:normal;font-variant:normal;font-weight:normal;font-stretch:normal;font-size:43.7444px;font-family:Hack;-inkscape-font-specification:Hack;fill:#bb2649;fill-opacity:1;stroke-width:0.29784"
       d="M 32.318958 15.40061 L 29.701029 20.44423 L 29.701029 20.444747 L 17.959627 43.384949 L 22.622909 43.384949 L 24.159249 40.441459 L 31.673002 40.474015 L 31.690055 36.683032 L 26.128638 36.668046 L 31.853353 25.699207 L 39.362455 43.384949 L 44.025736 43.384949 L 32.318958 15.40061 z " />
    <path
       id="path22610"
       style="font-size:50.8px;fill:#b7a990;fill-opacity:1;stroke-width:0.264583"
       d="M 46.009067,4.3418538 43.907386,6.538619 c 1.719385,1.5283414 3.216031,3.0328388 4.489649,4.51342 1.289538,1.46466 2.356033,3.008929 3.199805,4.632792 0.843771,1.623863 1.47278,3.415128 1.886706,5.373315 0.429846,1.958188 0.644922,4.186939 0.644922,6.686414 0,3.327326 -0.382529,6.200788 -1.1467,8.620662 -0.748251,2.403954 -1.878586,4.600784 -3.391008,6.590812 -1.512421,1.990028 -3.406782,3.988002 -5.683374,5.99395 l 2.101681,2.197282 c 2.579076,-2.10147 4.783758,-4.259046 6.614583,-6.471957 1.846746,-2.212911 3.255999,-4.68029 4.227132,-7.402649 0.987054,-2.722358 1.48053,-5.898289 1.48053,-9.5281 0,-3.629811 -0.493476,-6.806259 -1.48053,-9.528618 C 55.879649,15.493584 54.470396,13.026205 52.62365,10.813293 50.792825,8.6003824 48.588143,6.4433233 46.009067,4.3418538 Z" />
    <path
       id="path22608"
       style="font-size:50.8px;fill:#b7a990;fill-opacity:1;stroke-width:0.264583"
       d="m 16.359208,4.3418538 c -2.579076,2.1014695 -4.792125,4.2585286 -6.6388711,6.4714392 -1.8308257,2.212912 -3.2395615,4.680291 -4.2266154,7.402649 -0.9711336,2.722359 -1.4567586,5.898807 -1.4567586,9.528618 0,3.629811 0.485625,6.805742 1.4567586,9.5281 0.9870539,2.722359 2.3957897,5.189738 4.2266154,7.402649 1.8467461,2.212911 4.0597951,4.370487 6.6388711,6.471957 l 2.101681,-2.197282 C 16.184297,46.944036 14.289419,44.946062 12.776998,42.956034 11.264577,40.966006 10.12639,38.769176 9.3622192,36.365222 8.6139687,33.945348 8.2398071,31.071886 8.2398071,27.74456 c 0,-2.499475 0.2072249,-4.728226 0.6211507,-6.686414 0.4298461,-1.958187 1.0667059,-3.749452 1.9104782,-5.373315 0.843771,-1.623863 1.902415,-3.168132 3.176033,-4.632792 1.289538,-1.4805812 2.794036,-2.9850786 4.51342,-4.51342 z" />
    <path
       id="text30686"
       style="font-size:46.286px;font-family:'Fira Code';-inkscape-font-specification:'Fira Code';fill:#bb2649;fill-opacity:1;stroke-width:0.279956"
       d="M 23.060698 14.40517 C 22.99975 14.394856 22.938007 14.385365 22.875599 14.376737 C 22.811714 14.367905 22.747123 14.359744 22.681709 14.352678 C 22.616295 14.345612 22.550367 14.339387 22.483424 14.334087 C 22.419697 14.329043 22.355135 14.324955 22.290022 14.321511 C 22.558623 14.335884 22.815697 14.363566 23.060698 14.40517 z "
       transform="scale(1.0581023,0.9450882)" />
    <path
       id="path33165"
       style="font-size:46.286px;font-family:'Fira Code';-inkscape-font-specification:'Fira Code';fill:#bb2649;fill-opacity:1;stroke-width:0.279956"
       d="M 23.426012 14.479533 C 23.367952 14.465741 23.30923 14.452265 23.249704 14.440164 C 23.188878 14.427799 23.127449 14.416315 23.065094 14.405717 C 23.063652 14.405472 23.06214 14.405414 23.060698 14.40517 C 23.185472 14.426358 23.307359 14.451283 23.426012 14.479533 z "
       transform="scale(1.0581023,0.9450882)" />
    <path
       id="path33159"
       style="font-size:46.286px;font-family:'Fira Code';-inkscape-font-specification:'Fira Code';fill:#bb2649;fill-opacity:1;stroke-width:0.279956"
       d="M 21.895405 14.311122 C 22.013946 14.311688 22.130782 14.31442 22.24509 14.319871 C 22.187974 14.317183 22.130374 14.314777 22.072201 14.313309 C 22.013812 14.311836 21.954858 14.311367 21.895405 14.311122 z "
       transform="scale(1.0581023,0.9450882)" />
    <path
       id="path33155"
       style="font-size:46.286px;font-family:'Fira Code';-inkscape-font-specification:'Fira Code';fill:#b7a990;fill-opacity:1;stroke-width:0.279956"
       d="M 20.753066 10.738946 L 20.753066 14.310029 L 21.854869 14.310029 C 21.868667 14.310029 21.881663 14.311056 21.895405 14.311122 C 21.954858 14.311367 22.013812 14.311836 22.072201 14.313309 C 22.130374 14.314777 22.187974 14.317183 22.24509 14.319871 C 22.256661 14.320422 22.268727 14.320363 22.280254 14.320964 C 22.283577 14.321138 22.286703 14.321333 22.290022 14.321511 C 22.355135 14.324955 22.419697 14.329043 22.483424 14.334087 C 22.550367 14.339387 22.616295 14.345612 22.681709 14.352678 C 22.747123 14.359744 22.811714 14.367905 22.875599 14.376737 C 22.938007 14.385365 22.99975 14.394856 23.060698 14.40517 C 23.06214 14.405414 23.063652 14.405472 23.065094 14.405717 C 23.127449 14.416315 23.188878 14.427799 23.249704 14.440164 C 23.30923 14.452265 23.367952 14.465741 23.426012 14.479533 C 23.427281 14.479835 23.428652 14.479778 23.429919 14.48008 C 23.489216 14.494211 23.547972 14.509019 23.605739 14.524917 C 23.663506 14.540815 23.720437 14.557557 23.776675 14.575221 C 23.832912 14.592886 23.888507 14.611563 23.943215 14.630994 C 23.997923 14.650424 24.051693 14.671037 24.104871 14.692234 C 24.15805 14.713431 24.210483 14.735433 24.262132 14.758396 C 24.313781 14.781359 24.364878 14.805296 24.414998 14.830025 C 24.465117 14.854755 24.514389 14.88008 24.562979 14.906576 C 24.611569 14.933072 24.659505 14.960332 24.706565 14.988594 C 24.730095 15.002254 24.753242 15.016478 24.776405 15.030697 C 24.799567 15.044917 24.822473 15.059115 24.845267 15.073893 C 24.868062 15.088672 24.890726 15.103939 24.913153 15.119277 C 24.935581 15.134615 24.958003 15.150403 24.980062 15.166301 C 25.002122 15.182198 25.023815 15.197961 25.045506 15.214418 C 25.067198 15.230875 25.088649 15.247707 25.109974 15.264723 C 25.131298 15.281739 25.152507 15.299092 25.173464 15.316668 C 25.194421 15.334244 25.215389 15.352118 25.235978 15.370253 C 25.256567 15.388388 25.276805 15.406785 25.297026 15.425479 C 25.317248 15.444174 25.337244 15.463091 25.357098 15.482345 C 25.376952 15.501599 25.396707 15.521039 25.416193 15.540852 C 25.435679 15.560665 25.454704 15.581173 25.473823 15.601545 C 25.492941 15.621918 25.512213 15.642401 25.530964 15.663333 C 25.549715 15.684264 25.568257 15.705269 25.58664 15.72676 C 25.623406 15.769743 25.659278 15.813863 25.694574 15.859083 C 25.729869 15.904303 25.764287 15.951057 25.798112 15.998515 C 25.831937 16.045972 25.865389 16.094266 25.897743 16.143961 C 25.930098 16.193655 25.961607 16.244582 25.992491 16.296515 C 26.023374 16.348447 26.053429 16.401461 26.082842 16.455631 C 26.112255 16.5098 26.140856 16.564901 26.168799 16.621308 C 26.196741 16.677715 26.223888 16.735449 26.250359 16.794093 C 26.276831 16.852738 26.302524 16.912558 26.327525 16.97344 C 26.352525 17.034322 26.376764 17.096229 26.400294 17.159349 L 28.070092 21.632087 L 30.544265 16.295421 L 29.94599 14.694422 C 29.463845 13.383589 28.575158 12.419107 27.279393 11.801358 C 25.983627 11.183609 24.333498 10.844598 22.329582 10.78433 L 20.753066 10.738946 z "
       transform="scale(1.0581023,0.9450882)" />
  </g>
</svg>
